# xmcd CD database file
#
# Track frame offsets:
#	150
#	18317
#	33737
#	50866
#	62359
#	75143
#	94955
#	116986
#	136693
#	148971
#	185310
#	199392
#
# Disc length: 2850 seconds
#
# Revision: 0
# Processed by: cddbd v1.5.1PL0 Copyright (c) Steve Scherf et al.
# Submitted via: CDex 1.51
#
DISCID=aa0b200c
DTITLE=Dabenport - Dabenport
DYEAR=2003
DGENRE=Country
TTITLE0=Midway Cowboy
TTITLE1=Ego Tripping
TTITLE2=Pretty Good Life
TTITLE3=Shotgun Cain
TTITLE4=Sit At The Bar
TTITLE5=Finds You Well
TTITLE6=Morning Afters
TTITLE7=Demons
TTITLE8=Night Time
TTITLE9=Spending My Life
TTITLE10=Get It On
TTITLE11=Out of my Mind
EXTD=YEAR: 2003
EXTT0=
EXTT1=
EXTT2=
EXTT3=
EXTT4=
EXTT5=
EXTT6=
EXTT7=
EXTT8=
EXTT9=
EXTT10=
EXTT11=
PLAYORDER=
